<svg width="25" height="25" viewBox="0 0 25 25" fill="none" xmlns="http://www.w3.org/2000/svg">
<path d="M8.1276 2.08337H16.8776C20.2109 2.08337 22.9193 4.79171 22.9193 8.12504V16.875C22.9193 18.4774 22.2827 20.0141 21.1497 21.1471C20.0167 22.2802 18.48 22.9167 16.8776 22.9167H8.1276C4.79427 22.9167 2.08594 20.2084 2.08594 16.875V8.12504C2.08594 6.52269 2.72247 4.98597 3.8555 3.85294C4.98853 2.71991 6.52526 2.08337 8.1276 2.08337ZM7.91927 4.16671C6.92471 4.16671 5.97088 4.5618 5.26762 5.26506C4.56436 5.96832 4.16927 6.92215 4.16927 7.91671V17.0834C4.16927 19.1563 5.84635 20.8334 7.91927 20.8334H17.0859C18.0805 20.8334 19.0343 20.4383 19.7376 19.735C20.4409 19.0318 20.8359 18.0779 20.8359 17.0834V7.91671C20.8359 5.84379 19.1589 4.16671 17.0859 4.16671H7.91927ZM17.9714 5.72921C18.3167 5.72921 18.6479 5.86639 18.8921 6.11058C19.1363 6.35477 19.2734 6.68596 19.2734 7.03129C19.2734 7.37663 19.1363 7.70782 18.8921 7.952C18.6479 8.19619 18.3167 8.33337 17.9714 8.33337C17.626 8.33337 17.2948 8.19619 17.0506 7.952C16.8065 7.70782 16.6693 7.37663 16.6693 7.03129C16.6693 6.68596 16.8065 6.35477 17.0506 6.11058C17.2948 5.86639 17.626 5.72921 17.9714 5.72921ZM12.5026 7.29171C13.8839 7.29171 15.2087 7.84044 16.1855 8.81719C17.1622 9.79395 17.7109 11.1187 17.7109 12.5C17.7109 13.8814 17.1622 15.2061 16.1855 16.1829C15.2087 17.1596 13.8839 17.7084 12.5026 17.7084C11.1213 17.7084 9.79651 17.1596 8.81976 16.1829C7.843 15.2061 7.29427 13.8814 7.29427 12.5C7.29427 11.1187 7.843 9.79395 8.81976 8.81719C9.79651 7.84044 11.1213 7.29171 12.5026 7.29171ZM12.5026 9.37504C11.6738 9.37504 10.8789 9.70428 10.2929 10.2903C9.70684 10.8764 9.3776 11.6712 9.3776 12.5C9.3776 13.3288 9.70684 14.1237 10.2929 14.7098C10.8789 15.2958 11.6738 15.625 12.5026 15.625C13.3314 15.625 14.1263 15.2958 14.7123 14.7098C15.2984 14.1237 15.6276 13.3288 15.6276 12.5C15.6276 11.6712 15.2984 10.8764 14.7123 10.2903C14.1263 9.70428 13.3314 9.37504 12.5026 9.37504Z" fill="white"/>
</svg>
