<svg width="24" height="19" viewBox="0 0 24 19" fill="none" xmlns="http://www.w3.org/2000/svg">
<path d="M23.9321 2.86419C23.8649 2.71953 23.751 2.59587 23.6048 2.50886C23.4587 2.42184 23.2868 2.37538 23.111 2.37535H19.7298C19.257 1.65908 18.5842 1.06394 17.7768 0.647776C16.9693 0.231613 16.0547 0.00859379 15.1219 0.000399298C14.4268 -0.00771929 13.737 0.108038 13.093 0.340859C12.449 0.573681 11.8637 0.918864 11.3717 1.3561C10.8653 1.79866 10.4634 2.32691 10.1896 2.9098C9.91578 3.49269 9.77557 4.11845 9.77723 4.7503V5.35294C5.30375 4.30203 1.64474 1.06121 1.60585 1.02658C1.48659 0.919427 1.33544 0.844858 1.17019 0.81165C1.00494 0.778442 0.832475 0.787977 0.673107 0.839135C0.513739 0.890292 0.374102 0.98094 0.270643 1.1004C0.167183 1.21987 0.104208 1.36317 0.0891344 1.51344C-0.38977 6.24256 1.1525 9.40718 2.53366 11.229C3.2071 12.1296 4.02636 12.9365 4.96485 13.6237C3.27257 15.3584 0.60804 16.2698 0.579151 16.2797C0.453717 16.3215 0.340522 16.3881 0.248024 16.4743C0.155525 16.5606 0.0861145 16.6644 0.0449782 16.7779C0.00384185 16.8914 -0.00795641 17.0118 0.0104646 17.1299C0.0288857 17.2481 0.0770497 17.361 0.151358 17.4602C0.234694 17.5711 0.568039 17.96 1.38251 18.3231C2.38921 18.7724 3.71925 19 5.33264 19C13.1851 19 19.7465 13.6148 20.4165 6.68588L23.7399 3.72709C23.8642 3.61632 23.9488 3.47521 23.983 3.32161C24.0172 3.16801 23.9995 3.00883 23.9321 2.86419ZM18.932 5.7745C18.7796 5.91056 18.6879 6.09134 18.6742 6.28313C18.222 12.5263 12.364 17.4167 5.33264 17.4167C4.15927 17.4167 3.33257 17.2782 2.75256 17.1119C4.03149 16.4934 5.81488 15.4297 6.96158 13.8978C7.02889 13.8077 7.07474 13.7063 7.09632 13.5999C7.1179 13.4934 7.11474 13.3841 7.08704 13.2788C7.05935 13.1734 7.0077 13.0742 6.93528 12.9874C6.86287 12.9005 6.77123 12.8278 6.66602 12.7737C6.61379 12.747 1.78697 10.1672 1.77697 3.27387C3.5548 4.5603 6.80491 6.55625 10.5184 7.11239C10.6456 7.1315 10.7761 7.12569 10.9005 7.09538C11.025 7.06508 11.1406 7.01099 11.2393 6.93687C11.338 6.86276 11.4173 6.77041 11.4718 6.66623C11.5264 6.56205 11.5548 6.44854 11.5551 6.3336V4.7503C11.5541 4.328 11.6479 3.90979 11.8311 3.52028C12.0143 3.13077 12.2831 2.77783 12.6218 2.48222C12.9464 2.19257 13.3329 1.96382 13.7585 1.80949C14.1841 1.65516 14.6401 1.57839 15.0996 1.5837C16.5063 1.59953 17.8208 2.36347 18.3708 3.48465C18.4402 3.62561 18.5541 3.74551 18.6988 3.8297C18.8435 3.91388 19.0125 3.95869 19.1853 3.95865H20.9632L18.932 5.7745Z" fill="white"/>
</svg>
